<svg width="32" height="32" viewBox="0 0 32 32" fill="none" xmlns="http://www.w3.org/2000/svg">
<path d="M22.667 8.5H18.5003C18.0401 8.5 17.667 8.8731 17.667 9.33333V13.5C17.667 13.9602 18.0401 14.3333 18.5003 14.3333H22.667C23.1272 14.3333 23.5003 13.9602 23.5003 13.5V9.33333C23.5003 8.8731 23.1272 8.5 22.667 8.5Z" stroke="#6005FF" stroke-width="1.25" stroke-linecap="round" stroke-linejoin="round"/>
<path d="M14.3333 23.5002V12.6668C14.3333 12.4458 14.2455 12.2339 14.0893 12.0776C13.933 11.9213 13.721 11.8335 13.5 11.8335H9.33333C9.11232 11.8335 8.90036 11.9213 8.74408 12.0776C8.5878 12.2339 8.5 12.4458 8.5 12.6668V22.6668C8.5 22.8878 8.5878 23.0998 8.74408 23.2561C8.90036 23.4124 9.11232 23.5002 9.33333 23.5002H19.3333C19.5543 23.5002 19.7663 23.4124 19.9226 23.2561C20.0789 23.0998 20.1667 22.8878 20.1667 22.6668V18.5002C20.1667 18.2791 20.0789 18.0672 19.9226 17.9109C19.7663 17.7546 19.5543 17.6668 19.3333 17.6668H8.5" stroke="#6005FF" stroke-width="1.25" stroke-linecap="round" stroke-linejoin="round"/>
</svg>
