<svg width="20" height="20" viewBox="0 0 20 20" fill="none" xmlns="http://www.w3.org/2000/svg">
<path d="M15.3083 2.19172L11.6666 5.83338L10.3416 4.50838C10.0294 4.19797 9.60694 4.02373 9.16663 4.02373C8.72632 4.02373 8.3039 4.19797 7.99163 4.50838L6.66663 5.83338L14.1666 13.3334L15.4916 12.0084C15.802 11.6961 15.9763 11.2737 15.9763 10.8334C15.9763 10.3931 15.802 9.97066 15.4916 9.65838L14.1666 8.33338L17.8083 4.69172C18.1398 4.3602 18.3261 3.91056 18.3261 3.44172C18.3261 2.97288 18.1398 2.52324 17.8083 2.19172C17.4768 1.8602 17.0271 1.67395 16.5583 1.67395C16.0895 1.67395 15.6398 1.8602 15.3083 2.19172Z" stroke="#814AF7" stroke-width="1.25" stroke-linecap="round" stroke-linejoin="round"/>
<path d="M7.49996 6.66663C5.83329 9.16663 4.16663 9.58329 1.66663 9.99996L8.33329 18.3333C9.99996 17.5 13.3333 14.1666 13.3333 12.5" stroke="#814AF7" stroke-width="1.25" stroke-linecap="round" stroke-linejoin="round"/>
<path d="M12.0833 14.5833L3.75 12.5" stroke="#814AF7" stroke-width="1.25" stroke-linecap="round" stroke-linejoin="round"/>
</svg>
