<svg width="219" height="44" viewBox="0 0 219 44" fill="none" xmlns="http://www.w3.org/2000/svg">
<path d="M21.4151 2.85174C31.8398 2.85174 40.4059 11.4073 40.4059 21.9999C40.4059 32.5925 31.8398 41.148 21.4151 41.148C10.9904 41.148 2.42434 32.5925 2.42434 21.9999C2.42434 11.4073 10.9096 2.85174 21.4151 2.85174ZM21.4151 1.14062C10.0207 1.14062 0.808105 10.511 0.808105 21.9999C0.808105 33.4888 10.0207 42.8591 21.4151 42.8591C32.7288 42.8591 42.0221 33.5703 42.0221 21.9999C42.0221 10.4295 32.7288 1.14062 21.4151 1.14062ZM21.0111 25.8295C20.7686 26.7258 20.3646 27.4591 19.8797 28.1925C19.3948 28.9258 18.6675 29.4147 17.9402 29.7406C17.1321 30.148 16.2432 30.311 15.1118 30.311C13.9804 30.311 13.0107 30.0666 12.2026 29.6591C11.3945 29.2517 10.748 28.6814 10.2631 28.0295C9.77822 27.3777 9.37416 26.5628 9.13172 25.6666C8.88929 24.7703 8.80847 23.7925 8.80847 22.8147V15.2369H12.1218V22.8147C12.1218 23.3851 12.2026 23.9554 12.2834 24.4443C12.3642 24.9332 12.5258 25.4221 12.7683 25.8295C13.0107 26.2369 13.3339 26.5629 13.6572 26.8073C14.0612 27.0517 14.4653 27.1332 15.031 27.1332C15.5967 27.1332 16.0815 26.9703 16.4856 26.7258C16.8897 26.4814 17.2129 26.1554 17.4553 25.748C17.6978 25.3406 17.8594 24.8517 17.9402 24.3628C18.021 23.874 18.1018 23.3036 18.1018 22.7332V15.1554H21.4151V22.7332C21.3343 23.9554 21.2535 24.9332 21.0111 25.8295ZM24.0819 27.2147H34.0218V30.311H24.0819V27.2147ZM24.0819 21.2666H34.0218V24.3628H24.0819V21.2666ZM24.0819 15.3999H34.0218V18.4962H24.0819V15.3999Z" fill="#6005FF"/>
<path d="M54.0631 14.8294V8.39239H56.6491V14.8294C56.6491 15.4813 56.8107 15.9702 57.134 16.2961C57.4572 16.622 57.8613 16.785 58.5078 16.785C59.0734 16.785 59.5583 16.622 59.8816 16.2961C60.2048 15.9702 60.3664 15.4813 60.3664 14.8294V8.39239H62.9524V14.8294C62.9524 15.8072 62.71 16.622 62.3059 17.2739C61.821 18.0072 61.3362 18.4961 60.6089 18.822C59.9624 19.1479 59.2351 19.3109 58.4269 19.3109C57.2148 19.3109 56.1642 18.9035 55.2753 18.1702C54.4672 17.3554 54.0631 16.2961 54.0631 14.8294ZM65.6192 8.39239H68.2052V17.1924H71.4376V19.1479H65.6192V8.39239ZM72.6498 10.3479V8.39239H81.0543V10.3479H78.145V19.1479H75.5591V10.3479H72.6498ZM83.0746 19.1479V8.39239H85.6605V19.1479H83.0746ZM100.449 8.39239V19.1479H97.8631V13.0368L95.3579 19.1479H93.4185L90.9133 13.0368V19.1479H88.3273V8.39239H91.3174L94.3882 15.8072L97.459 8.39239H100.449ZM109.904 19.1479L109.338 17.3554H105.54L104.975 19.1479H102.227L105.944 8.31091H109.096L112.813 19.1479H109.904ZM106.187 15.3183H108.692L107.399 11.4887L106.187 15.3183ZM113.702 10.3479V8.39239H122.107V10.3479H119.197V19.1479H116.611V10.3479H113.702ZM130.511 8.31091V10.2665H126.632V12.5479H130.026V14.6665H126.632V17.1924H130.511V19.2294H124.046V8.31091H130.511ZM144.976 19.1479L144.411 17.3554H140.613L140.047 19.1479H137.299L141.017 8.31091H144.168L147.886 19.1479H144.976ZM141.259 15.3183H143.764L142.471 11.4887L141.259 15.3183ZM153.219 8.39239C154.916 8.39239 156.29 8.88128 157.421 9.85906C158.553 10.8368 159.038 12.1405 159.038 13.7702C159.038 15.3183 158.472 16.622 157.421 17.6813C156.29 18.6591 154.916 19.2294 153.219 19.2294H149.502V8.39239H153.219ZM152.088 17.1924H153.219C154.189 17.1924 154.997 16.8665 155.563 16.2146C156.128 15.5628 156.371 14.7479 156.371 13.7702C156.371 12.7924 156.048 11.8961 155.482 11.3257C154.916 10.6739 154.108 10.4294 153.138 10.4294H152.007L152.088 17.1924ZM164.937 8.39239C166.634 8.39239 168.008 8.88128 169.139 9.85906C170.27 10.8368 170.755 12.1405 170.755 13.7702C170.755 15.3183 170.19 16.622 169.139 17.6813C168.089 18.7405 166.634 19.2294 164.937 19.2294H161.22V8.39239H164.937ZM163.725 17.1924H164.856C165.826 17.1924 166.634 16.8665 167.2 16.2146C167.765 15.5628 168.089 14.7479 168.089 13.7702C168.089 12.7924 167.765 11.8961 167.2 11.3257C166.634 10.6739 165.826 10.4294 164.856 10.4294H163.725V17.1924ZM173.745 17.6813C172.695 16.622 172.129 15.3183 172.129 13.6887C172.129 12.0591 172.695 10.7554 173.745 9.6961C174.796 8.63684 176.089 8.14795 177.624 8.14795C179.16 8.14795 180.453 8.63684 181.503 9.6961C182.554 10.7554 183.039 12.0591 183.039 13.6887C183.039 15.3183 182.554 16.622 181.503 17.6813C180.453 18.7405 179.16 19.2294 177.624 19.2294C176.089 19.2294 174.877 18.7405 173.745 17.6813ZM179.725 15.9702C180.21 15.3998 180.453 14.6665 180.453 13.6887C180.453 12.7109 180.21 11.9776 179.725 11.4072C179.241 10.8368 178.513 10.5109 177.705 10.5109C176.897 10.5109 176.17 10.8368 175.685 11.3257C175.2 11.8961 174.958 12.6294 174.958 13.6072C174.958 14.585 175.2 15.3183 175.685 15.8887C176.17 16.4591 176.897 16.7035 177.705 16.7035C178.513 16.7035 179.16 16.5405 179.725 15.9702ZM192.17 8.31091H194.756V19.1479H192.17L187.807 12.3035V19.1479H185.221V8.31091H187.807L192.17 15.0739V8.31091ZM201.06 10.2665C200.737 10.2665 200.494 10.3479 200.252 10.5109C200.09 10.6739 199.928 10.9183 199.928 11.2442C199.928 11.5702 200.009 11.8146 200.252 12.0591C200.413 12.3035 200.656 12.385 200.979 12.5479C201.302 12.6294 201.625 12.7924 202.03 12.8739C202.434 12.9554 202.757 13.1183 203.161 13.1998C203.565 13.3628 203.888 13.5257 204.211 13.6887C204.535 13.9331 204.777 14.1776 204.939 14.585C205.1 14.9924 205.262 15.3998 205.262 15.8887C205.262 16.785 204.939 17.5998 204.131 18.2517C203.403 18.9035 202.434 19.2294 201.221 19.2294C200.009 19.2294 199.04 18.9035 198.312 18.3331C197.585 17.7628 197.181 16.9479 197.181 15.8887H199.928C200.009 16.7035 200.413 17.1924 201.221 17.1924C201.625 17.1924 201.868 17.1109 202.11 16.8665C202.353 16.7035 202.434 16.4591 202.434 16.1331C202.434 15.8072 202.353 15.5628 202.11 15.3998C201.949 15.2368 201.625 15.0739 201.383 14.9109C201.06 14.8294 200.737 14.6665 200.332 14.585C199.928 14.5035 199.605 14.3405 199.201 14.2591C198.797 14.0961 198.474 13.9331 198.151 13.7702C197.827 13.6072 197.585 13.2813 197.423 12.8739C197.262 12.4665 197.1 12.0591 197.1 11.5702C197.1 10.5924 197.504 9.77758 198.231 9.12573C198.959 8.55536 199.928 8.22943 201.06 8.22943C202.191 8.22943 203.161 8.47388 203.807 9.04425C204.535 9.53313 204.858 10.4294 204.939 11.5702H202.11C202.11 11.1628 201.949 10.9183 201.787 10.6739C201.706 10.4294 201.383 10.2665 201.06 10.2665ZM54.952 35.6887V27.3776H60.0432V28.6813H56.5683V30.8813H59.1543V32.185H56.5683V35.7702L54.952 35.6887ZM69.7406 35.7702C68.5284 35.7702 67.5587 35.3628 66.7506 34.548C65.9424 33.7331 65.5384 32.7554 65.5384 31.4517C65.5384 30.1479 65.9424 29.1702 66.7506 28.4368C67.5587 27.622 68.5284 27.2146 69.7406 27.2146C70.9528 27.2146 71.9225 27.7035 72.7306 28.4368C73.5388 29.2517 73.9428 30.2294 73.9428 31.4517C73.9428 32.6739 73.5388 33.7331 72.7306 34.548C71.9225 35.3628 70.9528 35.7702 69.7406 35.7702ZM71.5185 33.4887C72.0033 32.9998 72.2458 32.3479 72.2458 31.5331C72.2458 30.7183 72.0033 30.0665 71.5185 29.5776C71.0336 29.0887 70.4679 28.8442 69.7406 28.8442C69.0133 28.8442 68.3668 29.0887 67.8819 29.5776C67.3971 30.0665 67.1546 30.7183 67.1546 31.5331C67.1546 32.3479 67.3971 32.9998 67.8819 33.4887C68.3668 33.9776 68.9325 34.222 69.7406 34.222C70.4679 34.222 71.1144 33.9776 71.5185 33.4887ZM81.6199 32.3479V35.6887H80.0037V27.3776H82.9937C83.9635 27.3776 84.6908 27.622 85.1757 28.1109C85.6605 28.5998 85.9838 29.1702 85.9838 29.9035C85.9838 30.3924 85.8222 30.8813 85.4989 31.3702C85.1757 31.7776 84.6908 32.1035 84.0443 32.2665L86.1454 35.6887H84.2059L82.2664 32.3479H81.6199ZM81.6199 28.6813V31.1257H82.9937C83.3978 31.1257 83.721 31.0442 83.9635 30.7998C84.2059 30.5554 84.2867 30.3109 84.2867 29.9035C84.2867 29.4961 84.2059 29.2517 83.9635 29.0072C83.721 28.7628 83.3978 28.6813 82.9937 28.6813H81.6199ZM105.217 27.3776V28.6813H102.146V30.8813H104.894V32.185H102.146V34.4665H105.217V35.7702H100.53V27.3776H105.217ZM111.601 27.3776H113.298V34.385H115.965V35.6887H111.682V27.3776H111.601ZM126.47 27.3776V28.6813H123.4V30.8813H126.147V32.185H123.4V34.4665H126.47V35.7702H121.703V27.3776H126.47ZM141.744 27.3776V35.6887H140.128V30.3924L137.865 35.6072H136.653L134.39 30.3924V35.6072H132.693V27.3776H134.552L137.218 33.4887L139.885 27.3776H141.744ZM152.977 27.3776V28.6813H149.906V30.8813H152.654V32.185H149.906V34.4665H152.977V35.7702H148.209V27.3776H152.977ZM164.694 27.3776H166.392V35.6887H164.775L161.058 29.9035V35.6887H159.442V27.3776H161.139L164.856 33.1628L164.694 27.3776ZM172.372 28.6813V27.3776H178.432V28.6813H176.17V35.6887H174.554V28.6813H172.372ZM188.13 35.7702C186.918 35.7702 185.948 35.3628 185.14 34.548C184.332 33.7331 183.928 32.7554 183.928 31.4517C183.928 30.1479 184.332 29.1702 185.14 28.4368C185.948 27.622 186.918 27.2146 188.13 27.2146C189.261 27.2146 190.312 27.622 191.12 28.4368C191.928 29.2517 192.332 30.2294 192.332 31.4517C192.332 32.6739 191.928 33.7331 191.12 34.548C190.312 35.3628 189.342 35.7702 188.13 35.7702ZM189.908 33.4887C190.393 32.9998 190.635 32.3479 190.635 31.5331C190.635 30.7183 190.393 30.0665 189.908 29.5776C189.423 29.0887 188.857 28.8442 188.13 28.8442C187.403 28.8442 186.756 29.0887 186.352 29.5776C185.867 30.0665 185.625 30.7183 185.625 31.5331C185.625 32.3479 185.867 32.9998 186.352 33.4887C186.837 33.9776 187.403 34.222 188.13 34.222C188.857 34.222 189.504 33.9776 189.908 33.4887ZM200.009 32.3479V35.6887H198.312V27.3776H201.302C202.272 27.3776 202.999 27.622 203.484 28.1109C203.969 28.5998 204.292 29.1702 204.292 29.9035C204.292 30.3924 204.131 30.8813 203.807 31.3702C203.484 31.7776 202.999 32.1035 202.353 32.2665L204.454 35.6887H202.514L200.575 32.3479H200.009ZM200.009 28.6813V31.1257H201.383C201.787 31.1257 202.11 31.0442 202.353 30.7998C202.595 30.5554 202.676 30.3109 202.676 29.9035C202.676 29.4961 202.595 29.2517 202.353 29.0072C202.11 28.7628 201.787 28.6813 201.383 28.6813H200.009Z" fill="#6005FF"/>
<path d="M216.091 11.0814H214.959C214.717 11.0814 214.636 10.9999 214.475 10.8369L213.586 9.2888C213.505 9.20732 213.505 9.20732 213.424 9.12584C213.343 9.12584 213.262 9.04435 213.182 9.04435H212.858V10.9999H211.727V5.70361H213.424C213.828 5.70361 214.151 5.70361 214.394 5.78509C214.636 5.86658 214.879 5.94806 215.04 6.11102C215.202 6.27398 215.363 6.43695 215.444 6.59991C215.525 6.76287 215.525 7.00732 215.525 7.25176C215.525 7.41472 215.525 7.57769 215.444 7.74065C215.363 7.90361 215.363 8.06658 215.202 8.14806C215.121 8.31102 214.959 8.3925 214.879 8.47398C214.717 8.55546 214.555 8.63695 214.394 8.71843C214.475 8.79991 214.555 8.79991 214.636 8.88139C214.717 8.96287 214.798 9.04435 214.798 9.12584L216.091 11.0814ZM213.424 8.22954C213.586 8.22954 213.747 8.22954 213.828 8.14806C213.909 8.06658 214.07 8.06658 214.151 7.98509C214.232 7.90361 214.313 7.82213 214.313 7.74065C214.313 7.65917 214.394 7.49621 214.394 7.41472C214.394 7.17028 214.313 7.00732 214.151 6.84435C213.99 6.68139 213.747 6.68139 213.424 6.68139H212.939V8.31102H213.424V8.22954Z" fill="#6005FF"/>
<path d="M216.091 11.0814H214.959C214.717 11.0814 214.555 10.9999 214.475 10.8369L213.586 9.2888C213.505 9.20732 213.505 9.20732 213.424 9.12584C213.343 9.12584 213.343 9.04435 213.182 9.04435H212.858V10.9999H211.727V5.70361H213.505C213.909 5.70361 214.232 5.70361 214.475 5.78509C214.717 5.86658 214.959 5.94806 215.121 6.11102C215.283 6.27398 215.444 6.43695 215.525 6.59991C215.606 6.76287 215.606 7.00732 215.606 7.25176C215.606 7.41472 215.606 7.57769 215.525 7.74065C215.444 7.90361 215.444 8.06658 215.283 8.14806C215.202 8.31102 215.04 8.3925 214.959 8.47398C214.879 8.55546 214.717 8.63695 214.555 8.71843C214.636 8.79991 214.717 8.79991 214.717 8.88139C214.798 8.96287 214.879 9.04435 214.879 9.12584L216.091 11.0814ZM212.939 9.04435H213.262C213.343 9.04435 213.424 9.04435 213.505 9.12584C213.586 9.12584 213.586 9.20732 213.666 9.2888L214.555 10.8369C214.636 10.9999 214.798 11.0814 214.959 11.0814H216.01L214.879 9.2888C214.798 9.20732 214.798 9.12584 214.717 9.04435C214.636 8.96287 214.555 8.96287 214.475 8.88139C214.636 8.79991 214.798 8.71843 214.959 8.63695C215.121 8.55547 215.202 8.3925 215.283 8.31102C215.363 8.14806 215.444 8.06658 215.525 7.90361C215.606 7.74065 215.606 7.57769 215.606 7.41472C215.606 7.17028 215.525 7.00732 215.525 6.76287C215.444 6.59991 215.363 6.43695 215.121 6.27398C214.959 6.11102 214.717 6.02954 214.475 5.94806C214.232 5.86658 213.909 5.86658 213.505 5.86658H211.727V11.1629H212.939V9.04435ZM213.424 8.22954H212.939V6.59991H213.424C213.747 6.59991 213.99 6.68139 214.151 6.84435C214.313 7.00732 214.394 7.17028 214.394 7.41472C214.394 7.49621 214.394 7.65917 214.313 7.74065C214.313 7.82213 214.232 7.90361 214.151 7.98509C214.07 8.06658 213.99 8.14806 213.828 8.14806C213.747 8.22954 213.666 8.22954 213.424 8.22954ZM213.02 8.22954H213.505C213.666 8.22954 213.828 8.22954 213.909 8.14806C213.99 8.06658 214.151 8.06658 214.232 7.98509C214.313 7.90361 214.394 7.82213 214.394 7.74065C214.394 7.65917 214.475 7.49621 214.475 7.41472C214.475 7.17028 214.394 7.00732 214.232 6.84435C214.07 6.68139 213.828 6.68139 213.505 6.68139H213.02V8.22954Z" fill="#6005FF"/>
<path d="M213.666 13.0369C211.161 13.0369 209.06 10.9184 209.06 8.39249C209.06 5.86657 211.161 3.74805 213.666 3.74805C216.172 3.74805 218.273 5.78508 218.273 8.39249C218.192 10.9999 216.172 13.0369 213.666 13.0369ZM213.666 4.23694C211.404 4.23694 209.545 6.11101 209.545 8.39249C209.545 10.674 211.404 12.548 213.666 12.548C215.929 12.548 217.788 10.674 217.788 8.39249C217.788 6.11101 215.929 4.23694 213.666 4.23694Z" fill="#6005FF"/>
</svg>
