<svg width="48" height="49" viewBox="0 0 48 49" fill="none" xmlns="http://www.w3.org/2000/svg">
<path d="M23.9984 2.13918C36.1979 2.13918 46.1227 12.0677 46.1227 24.2716C46.1227 36.4773 36.1979 46.4077 23.9984 46.4077C11.7989 46.4077 1.87318 36.4773 1.87318 24.2716C1.87412 12.0677 11.7989 2.13918 23.9984 2.13918ZM23.9984 0.273438C10.7413 0.273438 -0.0020752 11.0211 -0.0020752 24.2716C-0.0020752 37.5267 10.7413 48.2734 23.9984 48.2734C37.2536 48.2734 47.9979 37.5267 47.9979 24.2716C47.9979 11.0183 37.2518 0.273438 23.9984 0.273438Z" fill="url(#paint0_linear_944_14866)"/>
<path d="M23.5357 28.6625C23.2422 29.6812 22.8043 30.5814 22.2023 31.3538C21.6163 32.1169 20.8503 32.7242 19.9323 33.1627C19.006 33.5983 17.9164 33.8166 16.6413 33.8166C15.322 33.8166 14.2034 33.5815 13.2705 33.117C12.3413 32.6617 11.5912 32.0404 10.9986 31.2624C10.4257 30.49 9.99536 29.5917 9.72814 28.5674C9.45341 27.5365 9.32214 26.4665 9.32214 25.3443V16.6425H13.1327V25.3452C13.1327 26.0066 13.1945 26.6335 13.3155 27.2203C13.4402 27.8201 13.6343 28.3425 13.9212 28.809C14.2034 29.2717 14.5541 29.642 15.0051 29.9116C15.4402 30.1831 15.9849 30.3202 16.6403 30.3202C17.2957 30.3202 17.8367 30.184 18.2877 29.9032C18.7387 29.6224 19.11 29.253 19.3773 28.794C19.6595 28.3313 19.8583 27.7959 19.9764 27.1886C20.0908 26.5925 20.1518 25.9842 20.1518 25.348V16.6527H23.9623V25.348H23.9641C23.9632 26.5384 23.8188 27.6382 23.5357 28.6625Z" fill="url(#paint1_linear_944_14866)"/>
<path d="M38.6739 30.2629H27.1317V33.82H38.6739V30.2629Z" fill="url(#paint2_linear_944_14866)"/>
<path d="M38.6739 23.4531H27.1317V27.0102H38.6739V23.4531Z" fill="url(#paint3_linear_944_14866)"/>
<path d="M38.6739 16.647H27.1317V20.204H38.6739V16.647Z" fill="url(#paint4_linear_944_14866)"/>
<defs>
<linearGradient id="paint0_linear_944_14866" x1="-0.0020752" y1="24.2734" x2="47.9978" y2="24.2734" gradientUnits="userSpaceOnUse">
<stop stop-color="#681DDD"/>
<stop offset="1" stop-color="#3A1B95"/>
</linearGradient>
<linearGradient id="paint1_linear_944_14866" x1="9.32205" y1="25.2299" x2="23.9642" y2="25.2299" gradientUnits="userSpaceOnUse">
<stop stop-color="#681DDD"/>
<stop offset="1" stop-color="#3A1B95"/>
</linearGradient>
<linearGradient id="paint2_linear_944_14866" x1="27.1317" y1="32.0412" x2="38.674" y2="32.0412" gradientUnits="userSpaceOnUse">
<stop stop-color="#681DDD"/>
<stop offset="1" stop-color="#3A1B95"/>
</linearGradient>
<linearGradient id="paint3_linear_944_14866" x1="27.1317" y1="25.2315" x2="38.674" y2="25.2315" gradientUnits="userSpaceOnUse">
<stop stop-color="#681DDD"/>
<stop offset="1" stop-color="#3A1B95"/>
</linearGradient>
<linearGradient id="paint4_linear_944_14866" x1="27.1317" y1="18.4254" x2="38.674" y2="18.4254" gradientUnits="userSpaceOnUse">
<stop stop-color="#681DDD"/>
<stop offset="1" stop-color="#3A1B95"/>
</linearGradient>
</defs>
</svg>
